<svg width="466" height="30" viewBox="0 0 466 30" fill="none" xmlns="http://www.w3.org/2000/svg">
<path d="M373.952 28.8718C373.234 28.8718 372.461 28.6305 371.935 28.2345C371.353 27.8077 359.246 18.6518 357.83 17.5753H334.099V27.9562C334.099 28.4758 333.721 28.8718 333.189 28.8718H325.982C325.499 28.8718 325.104 28.4758 325.104 27.9933V0.884322C325.104 0.40178 325.493 0.00585938 325.982 0.00585938H372.232C376.921 0.00585938 378.703 0.531698 380.194 1.44729C381.87 2.47424 382.681 3.35272 382.86 6.9656C382.879 7.33678 382.879 7.70796 382.879 8.07915V8.42558C382.879 9.19889 382.879 10.1021 382.841 11.0115C382.712 13.9996 381.963 14.9894 380.33 16.0782C378.777 17.1113 377.206 17.5753 371.984 17.5753H371.106L368.916 17.5815C368.916 17.5815 382.192 27.2447 382.705 27.6159C383.219 27.9871 382.971 28.8718 382.291 28.8718H373.958H373.952ZM368.427 12.7561C370.964 12.7561 371.638 12.6324 372.696 11.9951C373.58 11.4569 373.927 10.8074 374.007 9.52677C374.007 9.45872 374.007 9.39066 374.007 9.3288V9.21745C374.02 7.08313 373.71 6.55729 372.646 5.84585C371.78 5.27051 370.883 5.10967 368.483 5.10967H334.099V12.7561H368.427Z" fill="white"/>
<path d="M301.002 28.8721C300.463 28.8721 299.925 28.6432 299.628 28.2906C299.294 27.8946 295.929 23.7559 295.205 22.865H256.156C255.5 23.6693 252.574 27.2636 251.708 28.3153C251.417 28.6679 250.922 28.8659 250.347 28.8659H242.057C241.42 28.8659 241.166 28.105 241.525 27.6966C241.884 27.2883 265.151 0.538217 265.151 0.538217C265.436 0.210336 265.956 0 266.481 0H284.849C285.424 0 285.931 0.204142 286.235 0.550583C294.153 9.61989 309.397 27.1708 309.793 27.6224C310.238 28.1359 309.984 28.8597 309.248 28.8597H301.008L301.002 28.8721ZM291.499 18.3304L280.71 5.11H270.639L259.849 18.3304H291.499Z" fill="white"/>
<path d="M456.64 28.8721C456.102 28.8721 455.564 28.6432 455.267 28.2906C454.933 27.8946 451.567 23.7559 450.844 22.865H411.795C411.139 23.6693 408.213 27.2636 407.347 28.3153C407.056 28.6679 406.561 28.8659 405.986 28.8659H397.696C397.059 28.8659 396.805 28.105 397.164 27.6966C397.523 27.2883 420.79 0.538217 420.79 0.538217C421.074 0.210336 421.594 0 422.12 0H440.488C441.063 0 441.57 0.204142 441.873 0.550583C449.792 9.61989 465.035 27.1708 465.431 27.6224C465.877 28.1359 465.623 28.8597 464.887 28.8597H456.647L456.64 28.8721ZM447.144 18.3304L436.355 5.11H426.283L415.494 18.3304H447.144Z" fill="white"/>
<path d="M203.275 28.8718C202.73 28.8718 202.371 28.4573 202.371 27.9623V5.10967H176.766C176.252 5.10967 175.894 4.70136 175.894 4.20026V0.909073C175.894 0.395599 176.265 0.00585938 176.76 0.00585938H237.956C238.494 0.00585938 238.816 0.426531 238.816 0.909073V4.23738C238.816 4.70755 238.438 5.10967 237.925 5.10967H212.338V27.9562C212.338 28.4944 211.96 28.8718 211.428 28.8718H203.275Z" fill="white"/>
<path d="M93.3415 28.8724C92.8342 28.8724 92.3022 28.6497 92.0114 28.3156C92.0114 28.3156 68.8927 1.74491 68.4288 1.18813C67.9648 0.631354 68.1627 0.0126953 69.0165 0.0126953C69.8702 0.0126953 77.1949 0.0126953 77.1949 0.0126953C77.8074 0.0126953 78.3209 0.235412 78.6673 0.65609C79.0447 1.10151 95.5996 21.4054 97.3874 23.6016H107.744C109.408 21.56 126.167 1.03346 126.513 0.600414C126.798 0.247787 127.336 0.0188878 127.887 0.0188878H136.084C136.993 0.0188878 137.154 0.668471 136.684 1.22525C136.213 1.78203 113.126 28.3156 113.126 28.3156C112.823 28.6682 112.297 28.8848 111.752 28.8848H93.3415V28.8724Z" fill="white"/>
<path d="M152.694 28.8718C152.137 28.8718 151.778 28.482 151.778 27.9376V0.921439C151.778 0.395593 152.168 0.00585938 152.657 0.00585938H160.872C161.355 0.00585938 161.751 0.395594 161.751 0.884322V27.9933C161.751 28.4882 161.386 28.8718 160.848 28.8718H152.7H152.694Z" fill="white"/>
<path d="M42.4881 9.34117C42.4324 3.74863 40.5765 0.438878 32.1196 0.240913C28.9027 0.14193 25.395 0.0862646 21.714 0.0800781C19.1219 0.0800781 17.7485 0.0800706 14.6615 0.111003C14.6615 0.111003 13.3995 0.0924465 10.3372 0.191429C9.72475 0.216175 9.18652 0.253297 9.18652 0.253297C2.18967 0.847195 0.358486 3.7177 0.104843 9.60718C-0.0126997 12.8612 -0.0374499 16.3504 0.061533 19.6106C0.265685 26.094 2.17112 29.0388 11.5436 29.1316C11.6116 29.1316 20.5943 29.1996 25.7909 29.1996C34.2725 29.1996 40.8982 29.1254 40.8982 29.1254C41.2941 29.1254 41.6158 28.8037 41.6158 28.4078V26.8364C41.6158 26.4405 41.2941 26.1188 40.8982 26.1188C40.8982 26.1188 36.8646 26.1744 25.7909 26.193C20.7119 26.193 17.3897 26.2487 12.7004 26.1188C6.00671 25.927 4.10747 24.4175 3.90332 19.258C3.66205 16.1957 3.8229 13.3623 3.94044 10.0093C4.10129 5.60455 5.88298 3.20422 12.3169 2.99388C20.1056 2.86397 22.5368 2.87015 31.2473 2.97532C37.2791 3.08049 38.6278 4.89311 38.6463 9.3659C38.6463 10.5723 38.6463 11.2651 38.5659 12.1622C38.4112 13.8758 37.3905 15.0512 33.889 15.0512C33.889 15.0512 29.4595 15.1131 25.8775 15.1069C18.7879 15.1007 14.711 15.0512 14.711 15.0512C14.3151 15.0512 13.9934 15.3729 13.9934 15.7689V16.7896C13.9934 17.1856 14.3151 17.5072 14.711 17.5072C14.711 17.5072 21.5965 17.5877 26.391 17.5691C30.3441 17.5691 36.4068 17.6186 38.0153 17.334C41.455 16.7711 42.2097 14.0367 42.352 12.9788C42.4943 11.5435 42.5005 10.4918 42.4881 9.33498" fill="#0064AE"/>
<path d="M40.8912 21.2369C40.8912 21.2369 30.7021 21.3111 26.6438 21.3111C21.4534 21.2926 15.9413 21.2802 13.7389 21.206C11.0973 21.008 10.5653 20.0182 10.4168 17.6859C10.3302 14.1658 10.324 14.0173 10.4354 11.0293C10.5344 8.9135 11.2767 7.75047 13.3492 7.50301C15.533 7.34835 18.9726 7.39164 22.4804 7.33596C25.5736 7.3174 30.1392 7.4597 30.1392 7.4597C31.1104 7.49682 31.8899 8.05978 32.0075 8.71554C32.0755 9.11148 32.0446 9.49503 32.0075 9.8724C31.9518 10.4044 31.3455 10.8375 30.3309 10.8375C30.3309 10.8375 24.5652 10.9055 21.6328 10.8994C16.1393 10.856 14.704 10.8437 14.704 10.8437C14.3081 10.8437 13.9864 11.1654 13.9864 11.5613V12.5821C13.9864 12.978 14.3081 13.2997 14.704 13.2997C14.704 13.2997 21.1626 13.3368 24.3858 13.3244C25.2581 13.3183 32.2054 13.3368 33.0901 13.2564C33.5603 13.2193 35.7688 13.0337 35.8245 10.6395C35.8616 9.5631 35.8369 8.31342 35.7997 7.91749C35.5461 5.57902 34.0675 4.81809 31.0795 4.73148C28.0853 4.60775 25.5241 4.57064 22.4865 4.56445C18.7685 4.60157 12.7367 4.63251 10.788 4.91708C7.98555 5.44293 6.79774 7.10707 6.64308 10.4725C6.53173 12.8481 6.52554 16.4424 6.61833 18.5458C6.77299 22.9753 8.5485 23.8042 11.7778 24.1383C13.6832 24.293 23.365 24.3239 26.6562 24.3239C34.9336 24.3115 40.8912 24.2497 40.8912 24.2497C41.2871 24.2497 41.6088 23.928 41.6088 23.5321V21.9669C41.6088 21.571 41.2871 21.2493 40.8912 21.2493" fill="#0064AE"/>
<path d="M26.6574 24.3186C23.3662 24.3186 13.6782 24.2877 11.779 24.133C8.55585 23.7928 6.77416 22.97 6.6195 18.5405C6.52671 16.4371 6.5329 12.8428 6.64425 10.4672C6.79891 7.10178 7.98672 5.43763 10.7892 4.91178C12.7441 4.6272 18.7697 4.59627 22.4877 4.55915C25.5252 4.55915 28.0802 4.60245 31.0807 4.72617C34.0687 4.81897 35.5473 5.57373 35.8009 7.9122C35.8442 8.30813 35.8628 9.55779 35.8257 10.6342C35.7762 13.0284 33.5614 13.214 33.0912 13.2511C32.2066 13.3315 25.2654 13.313 24.3869 13.3191C21.1638 13.3253 14.7052 13.2944 14.7052 13.2944C14.6742 13.2944 14.6433 13.2944 14.6124 13.2882V15.0575C14.6433 15.0575 14.6742 15.0513 14.7052 15.0513C14.7052 15.0513 18.782 15.1008 25.8717 15.107C29.4474 15.1132 33.8769 15.0513 33.8831 15.0513C37.3846 15.0513 38.4054 13.8697 38.5601 12.1623C38.6405 11.2714 38.6467 10.5785 38.6405 9.366C38.6219 4.89321 37.2733 3.07441 31.2415 2.97542C22.531 2.87025 20.0997 2.86407 12.311 2.99398C5.87714 3.20432 4.08925 5.60465 3.93459 10.0094C3.81086 13.3624 3.6562 16.1896 3.89748 19.2581C4.10781 24.4176 6.00705 25.9271 12.6946 26.1189C17.3839 26.2488 20.706 26.1931 25.7851 26.1931C36.2154 26.1745 40.3974 26.1251 40.8552 26.1189V24.2506C40.3108 24.2506 34.5389 24.3124 26.6635 24.3248" fill="#DBDCDB"/>
</svg>
